<svg xmlns="http://www.w3.org/2000/svg" viewBox="0 0 355.22 441.31"><defs><style>.cls-1{fill:#cf8441;}.cls-2{fill:none;}.cls-2,.cls-3,.cls-5,.cls-6,.cls-7,.cls-8{stroke:#000;stroke-linecap:round;stroke-linejoin:round;stroke-width:5px;}.cls-3{fill:#27aae1;}.cls-4{fill:#fff;}.cls-5{fill:#ee5372;}.cls-6{fill:#dc2a26;}.cls-7{fill:#3f0f0b;}.cls-8{fill:#ea5572;}.cls-9{fill:#ce2623;}.cls-10{fill:#654584;}.cls-11{fill:#654588;}.cls-12{fill:#fffdff;}</style></defs><g id="Layer_2" data-name="Layer 2"><g id="Layer_7" data-name="Layer 7"><path d="M86.79,75.86C77.05,80,69.25,87.58,61,94.16s-18,12.49-28.59,12.33l15,8.46A149.52,149.52,0,0,0,5,209.23l15.34-6.81a66.4,66.4,0,0,0-13.43,50.4l11.09-10L0,284.94a19.58,19.58,0,0,0,17.43-2.54,64.44,64.44,0,0,0-6.27,55.41l7.06-10.95A90.48,90.48,0,0,1,5,371.57l10.73-1.94c-2.84,16.13,11.12,33.09,27.5,33.41l-4.68-10.35a38.74,38.74,0,0,1,24.75,27.14,5.83,5.83,0,0,0,5.45-6.43,43.74,43.74,0,0,0,41.09,8.68,38.79,38.79,0,0,0,43,.3c2.1,3.88,16.33,9.89,20.13,12.13,7.63,4.5.74-10.1,3.38-14.76a17.44,17.44,0,0,0,15.89,13.87c7.54.3,16.68,1,20.08,7.69A18.51,18.51,0,0,0,209.11,423c8.4,8.84,26,4.56,29.35-7.16A22,22,0,0,0,258.29,423a10.41,10.41,0,0,1,5.89-19.41L267,372.25l15.23.1a164.82,164.82,0,0,1-3.4-86.1l3.85-2.56a226.16,226.16,0,0,0-12.49-63.77A17.07,17.07,0,0,1,285,223.44l-5.66-48.77a172.22,172.22,0,0,0-20.07-75l-4.15,9A181.45,181.45,0,0,0,176.7,58.83l7.24,15.36C175.5,64.94,161,64.91,148.68,67s-25.39,5.53-37.05.93c1.33.53,4.48,7.69,3.37,8.74-1.35,1.26-6.38-2.15-8.07-2.63C100.37,72.18,93,73.22,86.79,75.86Z"/></g><g id="Layer_2-2" data-name="Layer 2"><path class="cls-1" d="M234.76,425.3a2.51,2.51,0,0,1-2.23-1.38c-2.66-5.28-10.33-6-17.95-6.32a19.61,19.61,0,0,1-13.16-6.15c.36,2.85.42,5.13-.89,6.64a3.65,3.65,0,0,1-2.81,1.25,7.07,7.07,0,0,1-3.57-1.2c-.93-.54-2.64-1.39-4.62-2.36-6.5-3.22-11.88-6-14.73-8.64a41.5,41.5,0,0,1-43-.84,44.42,44.42,0,0,1-12,1.64,46.85,46.85,0,0,1-27-8.6,8.73,8.73,0,0,1-1,1.54,8,8,0,0,1-6,2.93h0a2.5,2.5,0,0,1-2.43-1.92A36.39,36.39,0,0,0,66,379.15l2,4.34A2.5,2.5,0,0,1,65.65,387h0c-8.54-.17-16.86-4.42-22.84-11.68a31.45,31.45,0,0,1-7.46-21.17l-7.44,1.35a2.25,2.25,0,0,1-.44,0,2.5,2.5,0,0,1-2.14-3.81,87.43,87.43,0,0,0,12-33.69l-1.67,2.59a2.49,2.49,0,0,1-2.1,1.15l-.28,0a2.5,2.5,0,0,1-2.07-1.65A67.52,67.52,0,0,1,34,269.26a22.68,22.68,0,0,1-5.46.67,21.43,21.43,0,0,1-7-1.14,2.54,2.54,0,0,1-1.47-1.35,2.49,2.49,0,0,1,0-2l13.53-31.67L31,236.17a2.47,2.47,0,0,1-1.67.64,2.44,2.44,0,0,1-.84-.15,2.48,2.48,0,0,1-1.63-2,69.38,69.38,0,0,1,8.87-44.92L28.38,193a2.43,2.43,0,0,1-1,.22,2.5,2.5,0,0,1-2.49-2.67A152.78,152.78,0,0,1,65.68,97L53.51,90.15a2.5,2.5,0,0,1,1.23-4.67h.42c10.51,0,20.23-6.74,26.62-11.8,1.79-1.42,3.61-2.92,5.36-4.38,6.44-5.34,13.11-10.87,21-14.26a36.17,36.17,0,0,1,14.06-3,28.65,28.65,0,0,1,7.74,1,18.34,18.34,0,0,1,2.76,1.23c.46.24,1.15.59,1.83.9a15.22,15.22,0,0,0-1.86-3.69,2.5,2.5,0,0,1,1.3-4.63,2.44,2.44,0,0,1,.91.17,32.77,32.77,0,0,0,12.23,2.1c6,0,12.29-1.15,18.39-2.26,1.71-.31,3.41-.62,5.1-.91a76.77,76.77,0,0,1,12.69-1.16A39.48,39.48,0,0,1,200,48.06l-3.15-6.68a2.51,2.51,0,0,1,2.26-3.57,2.4,2.4,0,0,1,.75.12,183.38,183.38,0,0,1,77,47.84l2.59-5.64a2.5,2.5,0,0,1,2.2-1.46h.07A2.52,2.52,0,0,1,283.87,80a174.88,174.88,0,0,1,20.36,76l5.65,48.67a2.52,2.52,0,0,1-1.3,2.5,2.48,2.48,0,0,1-1.18.29,2.51,2.51,0,0,1-1.62-.59,14.65,14.65,0,0,0-9.36-3.39h-.53a228.52,228.52,0,0,1,11.65,61.6,2.51,2.51,0,0,1-1.12,2.21l-3,2A161.59,161.59,0,0,0,307,353.08a2.49,2.49,0,0,1-2.38,3.25l-12.95-.08-2.58,29.08a2.49,2.49,0,0,1-2.49,2.28h-.17l-.46,0a7.91,7.91,0,0,0-4,14.77,2.49,2.49,0,0,1-.84,4.63,23.21,23.21,0,0,1-3.74.31,24.77,24.77,0,0,1-15.62-5.61c-3.76,6.61-11.65,10.05-18.47,10.05a20.77,20.77,0,0,1-5.58-.75,20.72,20.72,0,0,1-.57,12.69,2.48,2.48,0,0,1-2.2,1.61Z"/><path d="M199.09,40.31a181.54,181.54,0,0,1,78.43,49.88l4.14-9a172.08,172.08,0,0,1,20.07,75l5.67,48.77a17.13,17.13,0,0,0-11-4,16.41,16.41,0,0,0-3.88.47A226.1,226.1,0,0,1,305,265.18l-3.86,2.55a164.92,164.92,0,0,0,3.41,86.1l-15.24-.1q-1.38,15.69-2.78,31.38l-.63,0a10.41,10.41,0,0,0-5.26,19.44,20.89,20.89,0,0,1-3.34.27,22.12,22.12,0,0,1-16.49-7.43c-2.15,7.43-10,11.87-17.6,11.87a16,16,0,0,1-11.75-4.71,18.47,18.47,0,0,1,3.26,18.27c-3.4-6.74-12.54-7.4-20.08-7.7a17.44,17.44,0,0,1-15.89-13.87c-2.29,4.06,2.62,15.61-1.07,15.61a4.94,4.94,0,0,1-2.3-.85c-3.8-2.24-18-8.25-20.13-12.13a38.84,38.84,0,0,1-43-.29,41.83,41.83,0,0,1-12.47,1.87,43.71,43.71,0,0,1-28.61-10.56,5.83,5.83,0,0,1-5.46,6.43A38.71,38.71,0,0,0,61,374.18l4.68,10.34c-16.37-.32-30.33-17.27-27.49-33.41l-10.73,1.95A90.37,90.37,0,0,0,40.6,308.34q-3.52,5.48-7.06,11a64.45,64.45,0,0,1,6.28-55.41,19.56,19.56,0,0,1-11.29,3.55,18.87,18.87,0,0,1-6.14-1q9-21,18-42.09l-11.09,10a66.39,66.39,0,0,1,13.43-50.4l-15.35,6.81A149.57,149.57,0,0,1,69.72,96.43L54.74,88h.42c10.43,0,20-5.85,28.17-12.34s16.1-14.14,25.84-18.3a33.88,33.88,0,0,1,13.08-2.76,25.74,25.74,0,0,1,7.06.94c1.44.41,5.26,2.91,7.21,2.91a1.18,1.18,0,0,0,.86-.28c1.12-1-2-8.21-3.36-8.73a35.56,35.56,0,0,0,13.14,2.27c7.89,0,16-1.87,23.91-3.2a74.25,74.25,0,0,1,12.27-1.13c8.74,0,17.25,2,23,8.31l-7.24-15.36m0-5a5,5,0,0,0-4.52,7.13l.6,1.29a47.79,47.79,0,0,0-11.83-1.37,78.42,78.42,0,0,0-13.1,1.2c-1.71.28-3.45.6-5.14.91-6,1.09-12.19,2.22-17.94,2.22a30.56,30.56,0,0,1-11.31-1.92,4.91,4.91,0,0,0-1.83-.35,5,5,0,0,0-4.92,5.89,31.33,31.33,0,0,0-6.85-.73,38.7,38.7,0,0,0-15,3.16c-8.28,3.54-15.09,9.18-21.67,14.64-1.74,1.44-3.54,2.94-5.31,4.34C74.13,76.55,64.89,83,55.16,83h-.42a5,5,0,0,0-2.46,9.35l9.42,5.32a155.45,155.45,0,0,0-39.33,92.74,5,5,0,0,0,5,5.33,5,5,0,0,0,2-.43l.77-.34a71.72,71.72,0,0,0-5.82,40.1,5,5,0,0,0,3.25,4,4.22,4.22,0,0,0,1,.24L17.79,264.46a5,5,0,0,0,3,6.69,23.89,23.89,0,0,0,7.77,1.28c.46,0,.92,0,1.37,0A70.05,70.05,0,0,0,28.83,321,5,5,0,0,0,33,324.26l.57,0h.13a85.06,85.06,0,0,1-10.51,26.16,5,5,0,0,0,4.27,7.61,5.45,5.45,0,0,0,.89-.08l4.52-.82a34.41,34.41,0,0,0,8,19.76c6.44,7.83,15.45,12.42,24.72,12.6h.09a5,5,0,0,0,4.18-2.25,5.07,5.07,0,0,0,.73-1.77,33.45,33.45,0,0,1,10.3,17,5,5,0,0,0,4.86,3.83h.06a10.49,10.49,0,0,0,7.62-3.54,49.44,49.44,0,0,0,26.39,7.67A47,47,0,0,0,131.43,409a44.1,44.1,0,0,0,43.09,1.16c3.22,2.48,8,5,13.91,7.86,1.85.91,3.6,1.78,4.45,2.28a9.44,9.44,0,0,0,4.84,1.54,6.12,6.12,0,0,0,4.7-2.11,6.78,6.78,0,0,0,1.5-3.05,21.21,21.21,0,0,0,10.56,3.42c6.88.27,13.77.88,15.82,4.95a5,5,0,0,0,4.46,2.75H235a5,5,0,0,0,4.41-3.23,23,23,0,0,0,1.34-10.45c.81.08,1.63.13,2.47.13a24,24,0,0,0,19.09-9,27.41,27.41,0,0,0,15,4.54,26.11,26.11,0,0,0,4.15-.34,5,5,0,0,0,1.68-9.27,5.41,5.41,0,0,1,2.77-10.1h.64a5,5,0,0,0,5-4.56l2.38-26.79,3,0,7.62.05h0a5,5,0,0,0,4.77-6.5,159.13,159.13,0,0,1-3.74-81.54l.25-.17,1.93-1.28a5,5,0,0,0,2.23-4.41,230.62,230.62,0,0,0-10.57-58.6,11.87,11.87,0,0,1,4.7,2.4,5,5,0,0,0,8.2-4.38l-5.64-48.57a177.26,177.26,0,0,0-20.65-77,5,5,0,0,0-4.41-2.65h-.15a5,5,0,0,0-4.39,2.91L276,81.43A185.75,185.75,0,0,0,200.6,35.55a5,5,0,0,0-1.51-.24Z"/><path class="cls-2" d="M140.53,74a13.19,13.19,0,0,0-15.16-.33c-1.82,1.27-3.29,3-5.09,4.3s-4.17,2.16-6.25,1.37"/><path class="cls-2" d="M217.86,72.09c-4.29-3.28-10.4-2.33-15.58-.76S191.63,75,186.45,73.41"/><path class="cls-2" d="M206,91.65c-3.35,0-6.95-.15-9.63-2.16-1-.77-1.84-1.77-2.85-2.54-3.22-2.46-7.68-2.19-11.72-1.82"/><path class="cls-2" d="M157.11,92.14c-1.75-1.44-4.46-.94-6.28.4s-3,3.34-4.41,5.12-3.23,3.45-5.48,3.68"/><path class="cls-2" d="M161.31,112.73c-2.68-.72-5.55,1.28-6.5,3.89a5.87,5.87,0,0,0,.17,4.7,8.28,8.28,0,0,0,4.4,3.45,21.88,21.88,0,0,1,5.13,2.47,7.92,7.92,0,0,1,2.15,9.46"/><path class="cls-2" d="M229.12,117.14a8.87,8.87,0,0,1,6.59,9.72,27.5,27.5,0,0,0-.8,4.1c0,2.94,2.33,5.3,4.5,7.28"/><path class="cls-2" d="M251.16,108.07c1.69-1.06,4-.13,5.26,1.44s1.65,3.61,2.17,5.54,1.27,3.93,2.88,5.11c1.38,1,3.15,1.22,4.74,1.83s3.17,1.93,3.06,3.63"/><path class="cls-2" d="M102.73,106.57c.7,3.54,1.39,7.29.16,10.68-.77,2.12-2.22,3.91-3.29,5.89s-1.73,4.42-.8,6.47"/><path class="cls-2" d="M83.28,185.79a13.41,13.41,0,0,0-6,15.09c.77,2.51,2.27,4.73,3.25,7.17s1.34,5.39-.1,7.58"/><path class="cls-2" d="M57.85,238.92a8.22,8.22,0,0,0-1.68,11.22c1,1.26,2.28,2.21,3.26,3.46,2.82,3.62,2.1,8.77,1.25,13.29"/><path class="cls-2" d="M92.64,263.88c-1.72,1.9-.48,5,1.28,6.85s4.08,3.45,4.71,5.94a5.26,5.26,0,0,1-3.13,6"/><path class="cls-2" d="M71.7,293.29c-2.78,1.28-3.56,5-3,8s2,5.86,2.16,8.92-1.42,6.64-4.46,7"/><path class="cls-2" d="M87.59,331.56c-1.19,2.92-2.3,6.53-.32,9,1.4,1.74,3.94,2.26,5.27,4,1.83,2.44.6,5.92-.9,8.57s-3.28,5.64-2.35,8.54"/><path class="cls-2" d="M131.88,363.43a10.59,10.59,0,0,0,2.5,9.52c1.6,1.73,4,3.56,3.31,5.81-.5,1.64-2.38,2.31-3.85,3.21s-2.68,3-1.42,4.19"/><path class="cls-2" d="M174.55,371.38a15.37,15.37,0,0,0-2.72,4.82,5.18,5.18,0,0,0,1.15,5.16c.76.7,1.78,1.07,2.52,1.79a4.72,4.72,0,0,1,1.05,4.2,13.83,13.83,0,0,1-1.77,4.13"/><path class="cls-2" d="M213.9,371.08a2.78,2.78,0,0,0-2.09,3.21,5.81,5.81,0,0,0,2.35,3.45,41.14,41.14,0,0,1,3.4,2.59A8,8,0,0,1,212.92,394"/><path class="cls-2" d="M255.88,362a6.86,6.86,0,0,0,3.61,10.68,12.11,12.11,0,0,1-7,17.91"/></g><g id="Layer_5" data-name="Layer 5"><path class="cls-3" d="M295.73,113c-7.31,4.3-37.34,6.32-37.34,6.32a51.36,51.36,0,0,0-1.6-13.77c-3.66-14.69-15.47-35.47-53.15-32.66-34.15,2.55-44.92,20.67-48,35a50.09,50.09,0,0,0-.66,17.76C67.65,125.36,55.8,108,55.8,108,55.8,81,62.48,2.5,191.16,2.5S295.73,113,295.73,113Z"/><path class="cls-3" d="M62.76,67.4S16.69,61.54,16.69,91.81,55.8,108,55.8,108,53.62,85.06,62.76,67.4Z"/><path class="cls-3" d="M258.39,119.32,155,125.62a50.09,50.09,0,0,1,.66-17.76l101.18-2.31A51.36,51.36,0,0,1,258.39,119.32Z"/><path d="M137.72,108a3,3,0,0,1-.72-.09l-17.08-4.26a3,3,0,0,1-1.84-1.37,3,3,0,0,1-.34-2.27l1.11-4.44a3,3,0,0,1,2.91-2.27,3,3,0,0,1,.72.09l10.76,2.68A3,3,0,0,1,136.09,94a2.9,2.9,0,0,1,.72.09l3.42.85a3,3,0,0,1,2.19,3.64l-1.79,7.13a3,3,0,0,1-1.36,1.85A3,3,0,0,1,137.72,108Z"/><path d="M139.62,100a3.07,3.07,0,0,1-1.61-.46l-15-9.49a3,3,0,0,1-1.12-3.79l2.76-6a3,3,0,0,1,2.73-1.75,3,3,0,0,1,.84.12l17.08,5a3,3,0,0,1,1.89,1.64,3,3,0,0,1,0,2.49l-2,4.25a2.91,2.91,0,0,1-.63.9,2.86,2.86,0,0,1-.27,1.06l-2,4.3a3,3,0,0,1-1.87,1.62A3.12,3.12,0,0,1,139.62,100Z"/><path d="M144.93,88.84a3,3,0,0,1-1.83-.62L129.17,77.47a3,3,0,0,1-.54-4.21l2.34-3a2.92,2.92,0,0,1,1-.84,3,3,0,0,1,.55-1.19l2.34-3a3,3,0,0,1,4.21-.54L153,75.38a3,3,0,0,1,.54,4.21l-2.45,3.17a3,3,0,0,1-.92.8,3.07,3.07,0,0,1-.53,1.09l-2.34,3A3,3,0,0,1,144.93,88.84Z"/><path d="M152.17,79.73a3,3,0,0,1-2.33-1.1L138.73,65a3,3,0,0,1,.43-4.22l2.65-2.17a23,23,0,0,1,4.31-3,6.88,6.88,0,0,1,2.82-.65,5.77,5.77,0,0,1,.94.08,6.14,6.14,0,0,1,3,1.4,23.39,23.39,0,0,1,2.6,2.88l3.9,4.78a16.07,16.07,0,0,1,2.25,3.29,5.47,5.47,0,0,1,.37,3.27,6.18,6.18,0,0,1-1.25,2.61,14.72,14.72,0,0,1-2.24,2.15l-4.48,3.65A3,3,0,0,1,152.17,79.73Z"/><path d="M162.42,71.61a3,3,0,0,1-2.57-1.44L150.64,55a3,3,0,0,1,1.3-4.29l4-1.85a2.93,2.93,0,0,1,1.1-.28A2.94,2.94,0,0,1,158,48l4.31-2a3.06,3.06,0,0,1,1.13-.27,3,3,0,0,1,.95-.68l4-1.86a3.07,3.07,0,0,1,1.26-.27,2.93,2.93,0,0,1,1.2.25A3,3,0,0,1,172.53,45L178,61.8a3,3,0,0,1-1.6,3.66l-5.19,2.39a3.09,3.09,0,0,1-1.25.27h-.09a3,3,0,0,1-1.08.84l-5.16,2.37A3,3,0,0,1,162.42,71.61Z"/><path d="M181.53,64.36a8.58,8.58,0,0,1-1.35-.1,7.11,7.11,0,0,1-3.55-1.59,7.22,7.22,0,0,1-2.15-3,38.41,38.41,0,0,1-1.12-4l-.7-2.93c-.44-1.84-.71-3.15-.82-4a7.22,7.22,0,0,1,.49-3.65,7.13,7.13,0,0,1,2.37-3,9.39,9.39,0,0,1,3.53-1.61,9.48,9.48,0,0,1,3.74-.2,7.23,7.23,0,0,1,5.7,4.62,39.17,39.17,0,0,1,1.12,4l.7,2.92a39.8,39.8,0,0,1,.81,4,7.14,7.14,0,0,1-.49,3.65,7.23,7.23,0,0,1-2.36,3,9.52,9.52,0,0,1-3.54,1.61A10.46,10.46,0,0,1,181.53,64.36Z"/><path d="M190.62,62.25a3,3,0,0,1-3-2.61l-2.26-17.45A3,3,0,0,1,188,38.83l4.53-.59a2.56,2.56,0,0,1,.39,0,3,3,0,0,1,1.83.63,3,3,0,0,1,1.15,2l1.42,11h.17a3,3,0,0,1,3,2.61l.46,3.49a3,3,0,0,1-2.6,3.36l-7.29.95A2.55,2.55,0,0,1,190.62,62.25Z"/><path d="M200.3,61.17a3,3,0,0,1-3-2.81L196.18,40.8a3,3,0,0,1,.75-2.17,3,3,0,0,1,2.06-1l7.73-.5h.19a3,3,0,0,1,3,2.81l.22,3.51a3,3,0,0,1-.58,2,3.09,3.09,0,0,1,.45,1.38l.21,3.35a3,3,0,0,1-2.63,3.16l.28,4.39a3,3,0,0,1-2.81,3.19l-4.56.29Z"/><path d="M220.92,61.55c-.3,0-.62,0-.94,0a9.81,9.81,0,0,1-3.61-1,7.22,7.22,0,0,1-4-6.16,37.81,37.81,0,0,1,.2-4.16l.25-3c.16-1.89.32-3.22.48-4.07a7.24,7.24,0,0,1,4.82-5.45,9.1,9.1,0,0,1,2.91-.46c.31,0,.62,0,.94,0a9.56,9.56,0,0,1,3.61,1,7.22,7.22,0,0,1,4,6.16,37.13,37.13,0,0,1-.19,4.16l-.25,3a40.27,40.27,0,0,1-.49,4.07,7.21,7.21,0,0,1-4.81,5.45A9.21,9.21,0,0,1,220.92,61.55Z"/><path d="M237.47,64.2a2.76,2.76,0,0,1-.69-.08l-3.9-.91a3,3,0,0,1-1.1-.52,3.17,3.17,0,0,1-.53.05,3.25,3.25,0,0,1-.69-.08l-3.72-.88a3,3,0,0,1-2.24-3.6l4-17.13a3,3,0,0,1,2.92-2.32,3.25,3.25,0,0,1,.69.08l3.73.88a3,3,0,0,1,1.18.57,3.18,3.18,0,0,1,.62-.06,2.71,2.71,0,0,1,.69.08l3.73.87a3,3,0,0,1,1.86,1.35,3,3,0,0,1,.37,2.26l-4,17.13A3,3,0,0,1,237.47,64.2Z"/><path d="M251.85,70.76a5.51,5.51,0,0,1-1.06-.1,14.8,14.8,0,0,1-4.24-2L242,66A3,3,0,0,1,241,61.88l9-15.12a3,3,0,0,1,2.58-1.47,3.08,3.08,0,0,1,1.54.42L258,48.05a14.57,14.57,0,0,1,3.32,2.52,6.22,6.22,0,0,1,1.63,4,8.78,8.78,0,0,1-1.52,4.88,7.45,7.45,0,0,1-2,2.29,7.79,7.79,0,0,1-1.24,3.74l-.83,1.4a9.13,9.13,0,0,1-2.61,3A5.23,5.23,0,0,1,251.85,70.76Z"/><path d="M260.7,80.3a3,3,0,0,1-2.2-1l-3.19-3.42a3.18,3.18,0,0,1-.59-.93,3.24,3.24,0,0,1-.88-.65l-3.22-3.47a3,3,0,0,1-.79-2.34,3,3,0,0,1,1.25-2.15l14.46-10.28a3,3,0,0,1,1.74-.56,3,3,0,0,1,2.2,1l4.5,4.84a3,3,0,0,1,.15,3.91L263,79.17a3,3,0,0,1-2.23,1.13Z"/><path d="M266.53,88.41a6.36,6.36,0,0,1-3.93-1.49,9.62,9.62,0,0,1-2.69-3.38A9.5,9.5,0,0,1,258.82,79a6.26,6.26,0,0,1,1.63-4.27,11.69,11.69,0,0,1,3.4-2.37l1-.51a3,3,0,0,1,1.34-.32,3,3,0,0,1,1.08.2,8,8,0,0,1,.72-1,9.33,9.33,0,0,1,2.81-2A9.45,9.45,0,0,1,275,67.54h.22a6.45,6.45,0,0,1,3.81,1.5,9.68,9.68,0,0,1,2.52,3.25,10.22,10.22,0,0,1,1.15,4.22,6.08,6.08,0,0,1-1.2,4.1A10.18,10.18,0,0,1,278,83.13l-.62.31a2.94,2.94,0,0,1-2.45.1.31.31,0,0,1-.05.1,9.47,9.47,0,0,1-4.28,3.61,9.05,9.05,0,0,1-4,1.16Z"/><path d="M267.17,98.4a3,3,0,0,1-2.91-2.31l-1.82-7.73a3,3,0,0,1,.38-2.26,3,3,0,0,1,1.86-1.34l17.13-4a3.25,3.25,0,0,1,.69-.08,3,3,0,0,1,1.58.45A3,3,0,0,1,285.42,83l1.74,7.43A3,3,0,0,1,284.93,94l-3.43.8a2.71,2.71,0,0,1-.69.08,3,3,0,0,1-1.22-.26,2.91,2.91,0,0,1-1.39.75l-3.26.77a3.08,3.08,0,0,1-.68.08,3,3,0,0,1-1-.18l-.07.13a3,3,0,0,1-1.87,1.34l-3.43.8A2.71,2.71,0,0,1,267.17,98.4Z"/><path class="cls-4" d="M121.76,96.31l13.65,3.41.68-2.7,3.42.85L137.72,105l-17.07-4.26Z"/><path class="cls-4" d="M127.38,81.53l17.08,5-2,4.25-3-1.1-.68,1.48,2.76,1.58-2,4.29-15-9.48Zm9.26,6.94q-2.87-.94-7-2.46c2.86,1.83,5,3.13,6.34,3.89Z"/><path class="cls-4" d="M137.25,67l13.93,10.75-2.45,3.17-7.79-3,6.33,4.89-2.34,3L131,75.09l2.34-3,7.84,2.81L134.91,70Z"/><path class="cls-4" d="M141.05,63.09l2.66-2.16a21.45,21.45,0,0,1,3.66-2.6,3.5,3.5,0,0,1,2-.35,3.22,3.22,0,0,1,1.57.73,23.23,23.23,0,0,1,2.24,2.5L157.08,66a14.27,14.27,0,0,1,1.83,2.59A2.45,2.45,0,0,1,159.1,70a3.26,3.26,0,0,1-.67,1.36,12.22,12.22,0,0,1-1.79,1.69l-4.47,3.64Zm5.45-.55,7.31,9c.51-.42.75-.78.7-1.08a6,6,0,0,0-1.19-1.82L149,63.32a8.62,8.62,0,0,0-1-1.14.71.71,0,0,0-.58-.17A2.33,2.33,0,0,0,146.5,62.54Z"/><path class="cls-4" d="M169.68,45.9l5.5,16.83L170,65.12q-2.4-3.36-5.11-7.8.68,2.13,2.7,8.91l-5.16,2.38L153.2,53.48l4-1.86,3,5.38,2.91,5.19q-1.69-4.29-3.9-11.5l4.32-2q.41.66,2.88,5.06l3.26,5.87q-2.33-6-4.07-11.89Z"/><path class="cls-4" d="M186.57,52.46c.41,1.72.67,2.95.76,3.69a4.21,4.21,0,0,1-1.69,3.92,6.46,6.46,0,0,1-2.43,1.08,6.69,6.69,0,0,1-2.57.15,4.24,4.24,0,0,1-3.35-2.69c-.25-.69-.59-1.91-1-3.67l-.7-2.93a36.67,36.67,0,0,1-.76-3.68,4.23,4.23,0,0,1,.29-2.14,4.14,4.14,0,0,1,1.4-1.78,7.14,7.14,0,0,1,5-1.23,4.2,4.2,0,0,1,3.34,2.69,34.21,34.21,0,0,1,1,3.67Zm-5.8-4.55a5.32,5.32,0,0,0-.5-1.49.54.54,0,0,0-.62-.21.64.64,0,0,0-.47.4,4,4,0,0,0,.2,1.64l1.92,8a7.71,7.71,0,0,0,.56,1.81.55.55,0,0,0,.65.21.56.56,0,0,0,.48-.54,8.82,8.82,0,0,0-.33-1.95Z"/><path class="cls-4" d="M192.9,41.21l1.81,14,2.76-.35.45,3.49-7.3.94L188.36,41.8Z"/><path class="cls-4" d="M199.18,40.61l7.73-.49.23,3.51-3.17.21.21,3.33L207,47l.21,3.34-2.82.18.47,7.37-4.56.29Z"/><path class="cls-4" d="M226.15,51.32c-.15,1.76-.3,3-.44,3.73a4.24,4.24,0,0,1-1,2,4.3,4.3,0,0,1-1.89,1.25,6.56,6.56,0,0,1-2.64.27,6.63,6.63,0,0,1-2.49-.68,4.2,4.2,0,0,1-2.33-3.6,36.5,36.5,0,0,1,.19-3.8l.25-3a37,37,0,0,1,.44-3.73,4.15,4.15,0,0,1,1-2,4.21,4.21,0,0,1,1.88-1.25,6.56,6.56,0,0,1,2.64-.27,6.63,6.63,0,0,1,2.49.68,4.12,4.12,0,0,1,1.69,1.53,4.23,4.23,0,0,1,.65,2.07c0,.73,0,2-.19,3.8Zm-4.08-6.14a5.52,5.52,0,0,0,0-1.58.57.57,0,0,0-.53-.39.63.63,0,0,0-.57.23,3.92,3.92,0,0,0-.33,1.62L220,53.25a8.48,8.48,0,0,0,0,1.89.55.55,0,0,0,.55.41.58.58,0,0,0,.63-.36,8.45,8.45,0,0,0,.29-1.95Z"/><path class="cls-4" d="M241.5,44.07l-4,17.13-3.9-.91L233.08,52l-1.83,7.79-3.73-.88,4-17.13,3.73.88.68,8.3,1.82-7.71Z"/><path class="cls-4" d="M252.53,48.29l3.92,2.33a12.42,12.42,0,0,1,2.65,2,3.3,3.3,0,0,1,.85,2.09,6.13,6.13,0,0,1-1.11,3.19,3.49,3.49,0,0,1-1.51,1.6,3.32,3.32,0,0,1-2.12-.17,3.39,3.39,0,0,1,1.24,2.13,4.6,4.6,0,0,1-.82,2.48l-.83,1.4a6.56,6.56,0,0,1-1.7,2.06,2.24,2.24,0,0,1-1.72.35,13.63,13.63,0,0,1-3.3-1.6l-4.55-2.71Zm-1,10.64L249,63.16a1.87,1.87,0,0,0,1.22.37c.24-.06.55-.4.91-1l.84-1.41a2.35,2.35,0,0,0,.5-1.3C252.41,59.59,252.1,59.3,251.52,58.93Zm3.4-5.71-2,3.36.4.22c.39.23.69.29.91.16a5.58,5.58,0,0,0,1.13-1.54,3.16,3.16,0,0,0,.46-1.07.75.75,0,0,0-.13-.56A3,3,0,0,0,254.92,53.22Z"/><path class="cls-4" d="M271.79,63.39,260.7,77.3l-3.19-3.42,2.15-2.33-1.12-1.2-2.5,2-3.23-3.46,14.47-10.29Zm-9.93,5.94q2-2.3,4.93-5.55c-2.78,2-4.79,3.42-6,4.4Z"/><path class="cls-4" d="M276,80.75,274.1,77l1.17-.58a2.49,2.49,0,0,0,1-.67.59.59,0,0,0,0-.59.69.69,0,0,0-.58-.41,1.86,1.86,0,0,0-1,.27,2.84,2.84,0,0,0-1.08.8,3.47,3.47,0,0,0-.39,1.64,13,13,0,0,1-.94,4.77,6.85,6.85,0,0,1-3,2.39,6.53,6.53,0,0,1-2.68.84,3.45,3.45,0,0,1-2.09-.85,6.78,6.78,0,0,1-1.86-2.36,6.57,6.57,0,0,1-.77-3.11,3.38,3.38,0,0,1,.82-2.32,9.06,9.06,0,0,1,2.55-1.72l1-.52,1.9,3.81-1.91,1a2.86,2.86,0,0,0-1.06.73.66.66,0,0,0,0,.69.74.74,0,0,0,.63.45,2,2,0,0,0,1.05-.27,3.36,3.36,0,0,0,1.63-1.29A14.11,14.11,0,0,0,269,77a21.8,21.8,0,0,1,.46-2.76,3.87,3.87,0,0,1,.85-1.45,6,6,0,0,1,1.9-1.35,6.29,6.29,0,0,1,2.88-.86,3.48,3.48,0,0,1,2.05.84,6.55,6.55,0,0,1,1.71,2.25,7.25,7.25,0,0,1,.85,3,3.16,3.16,0,0,1-.56,2.13,7.54,7.54,0,0,1-2.48,1.69Z"/><path class="cls-4" d="M282.5,83.66l1.74,7.43-3.43.8-.7-3-3.24.76.65,2.78-3.26.77-.65-2.78-3.77.88.77,3.27-3.43.8-1.81-7.72Z"/></g><g id="Layer_4" data-name="Layer 4"><path class="cls-5" d="M195.58,255.65c24,3.09,48.92,5.11,72.16-1.8,13.23-5.89,28.49-.2,18.13,15.6-5.31,9.54-9.4,20.95-5.71,31.23,3.24,8.94,12.72,16.67,10.7,26.93-9.2,28.33-118.07,24.2-142.13,14.16-38.92-12.4-50.31-55.93-26.33-87.72C131.5,244.75,181.28,254.51,195.58,255.65Z"/><path class="cls-6" d="M263.11,328.84c-31,3.38-62.24,6.76-93.2,3.31-14.58-.38-28-6.64-36.5-16.63a40.26,40.26,0,0,1-2.59-3.41,37.28,37.28,0,0,1-6.53-20.33,41.87,41.87,0,0,1,1.54-12c3.63-14.27,16.89-18.53,30.2-16,11.33.84,22.48,3.13,33.74,4.55q9.91,1.25,19.92,1.59a219.51,219.51,0,0,0,51.21-4.25c3.21-.93,8.42-.92,9,3.23-6.28,13.18-8.79,29.08-.85,42.35C274.8,319,275.07,328.6,263.11,328.84Z"/><path class="cls-7" d="M215.22,284.32a23.43,23.43,0,0,1-8.35,18.37c-5.13,4.25-11.84,6.08-18.44,7-11.47,1.56-23.09.65-34.66.55a105.43,105.43,0,0,0-23,1.9c-6-8.83-8.37-20-5-32.37,3.63-14.27,16.89-18.53,30.2-16,11.33.84,22.48,3.13,33.74,4.55q9.91,1.25,19.92,1.59A23.16,23.16,0,0,1,215.22,284.32Z"/><path class="cls-8" d="M254,315.5c-1.16,3.87-5.8,5.29-9.75,6.12-19.47,4.1-40,7.94-58.93,1.73-7.66-2.52-14.76-6.63-22.53-8.84a49.17,49.17,0,0,0-27.65.31,11.84,11.84,0,0,0-1.73.7,40.26,40.26,0,0,1-2.59-3.41,37.28,37.28,0,0,1-6.53-20.33,21.51,21.51,0,0,1,4.18-1,125.52,125.52,0,0,1,46.28,1.56c3.36.75,6.79,1.65,10.21,1.23,3.74-.47,7.09-2.47,10.67-3.64,7.57-2.49,15.87-1.24,23.53,1a97.35,97.35,0,0,1,28.56,13.69,19.25,19.25,0,0,1,5,4.51A7.51,7.51,0,0,1,254,315.5Z"/><path class="cls-2" d="M183.94,293.67c4.63-.61,7.54,1.25,11.48,3.76s7.24,5.89,10.5,9.23"/><path class="cls-4" d="M169.63,297.78c6.26.61,12.52,2.35,17.7,5.92,1.1.77,2.28,1.93,2,3.24a2.54,2.54,0,0,1-2.91,1.58A9.45,9.45,0,0,1,183.1,307a31.86,31.86,0,0,0-13.66-4c-4.76-.43-9.55-.23-14.33-.31a6.77,6.77,0,0,1-3.78-.85c-1-.72-1.73-2.67-.56-3.57s4.11-.54,5.54-.62A87.09,87.09,0,0,1,169.63,297.78Z"/></g><g id="Layer_3" data-name="Layer 3"><path class="cls-9" d="M167.06,237.14c-21.95,0-38.63-6.24-49.57-18.54-14.41-16.21-14.21-37.66-13.82-43.78l-62.11-36c-1.11,6.62-4.33,19.08-12.84,19.08h0a8.92,8.92,0,0,1-2.32-.31c-6.88-1.82-12.15-13.05-10.84-23.11.65-5,4-16.65,21-16.65a2.44,2.44,0,0,1,1.29.36l60.6,36.61H213.81a2.49,2.49,0,0,1,2.38,1.75c.08.23,2.27,6.32,11.64,6.32,9.55,0,13.23-9.44,13.39-9.85a2.5,2.5,0,0,1,2.34-1.62h61.26a123.28,123.28,0,0,0-2.41-19.22,2.5,2.5,0,0,1,4.37-2.1l15.47,18.59H338.4a18.29,18.29,0,0,1,4.67-.63c6,0,9.65,3.62,9.65,9.69,0,6.53-4.46,10.43-11.94,10.43h-.18c1.57,8.74,4.2,32.33-8.77,49-8.78,11.25-22.89,16.95-41.95,16.95-22.74,0-39-5.89-48.43-17.5-9.1-11.25-9-24.54-8.43-30.41h-6.51c.72,6.16,1.08,20.48-8.57,32.54C208.15,230.93,191,237.14,167.06,237.14Z"/><path d="M36.6,120.33l61.19,37h116s2.55,8.07,14,8.07,15.73-11.47,15.73-11.47H307.4a123.09,123.09,0,0,0-2.54-22.22l16.22,19.49h17.67a16,16,0,0,1,4.32-.63c3.25,0,7.15,1.24,7.15,7.19,0,6.79-5.66,7.93-9.44,7.93a18.32,18.32,0,0,1-3.31-.29s16.58,66.19-47.59,66.19-54-47.91-54-47.91H223.58s11.48,51-56.52,51-60.77-61.19-60.77-61.19L39.57,134.78S37.68,155.4,28.72,155.4a6.69,6.69,0,0,1-1.68-.22c-10.41-2.77-17.21-34.85,9.56-34.85m0-5c-13.19,0-22,7-23.52,18.83-1.34,10.26,3.8,23.49,12.68,25.85a11.63,11.63,0,0,0,3,.39c8.92,0,12.9-10.07,14.63-17.66l57.75,33.48c-.28,8,.56,28.33,14.52,44,11.44,12.86,28.74,19.38,51.44,19.38,24.77,0,42.54-6.52,52.84-19.39,8.92-11.16,9.77-24.14,9.33-31.6h1.12c-.29,7.06.75,19.09,9.16,29.48,9.89,12.23,26.84,18.43,50.37,18.43,19.87,0,34.65-6,43.92-17.91,12.35-15.83,11.22-37.54,9.7-48.16,7.3-.92,11.72-5.64,11.72-12.76,0-7.52-4.66-12.19-12.15-12.19a21.24,21.24,0,0,0-5,.63H323.43l-14.72-17.69a5,5,0,0,0-8.75,4.19,122.94,122.94,0,0,1,2.22,16.23H243.56a5,5,0,0,0-4.69,3.26c-.12.31-3.27,8.21-11,8.21-7.07,0-9-3.93-9.27-4.63a4.7,4.7,0,0,0-4.75-3.44H99.19l-60-36.25a5,5,0,0,0-2.59-.72Z"/><path class="cls-10" d="M169.48,225.31c-.89,0-1.78,0-2.64,0a60.14,60.14,0,0,1-15-2.31,43,43,0,0,1-14-7c-20.62-15.72-17.74-45.17-17.6-46.42a2.49,2.49,0,0,1,2.48-2.23h84.1a2.49,2.49,0,0,1,2.4,1.82c.26.92,6.29,22.79-3.34,39.13-4.67,7.92-12.19,13.14-22.36,15.51A61.7,61.7,0,0,1,169.48,225.31Z"/><path d="M206.86,169.86S219.06,213,183,221.39a59,59,0,0,1-13.51,1.42c-.86,0-1.72,0-2.55,0a57.15,57.15,0,0,1-14.39-2.21A40.13,40.13,0,0,1,139.4,214c-19.74-15-16.64-44.16-16.64-44.16h84.1m0-5h-84.1a5,5,0,0,0-5,4.47c-.14,1.3-3.15,32.11,18.58,48.67a45.48,45.48,0,0,0,14.75,7.36,62.74,62.74,0,0,0,15.64,2.4c.88,0,1.8.05,2.72.05a64,64,0,0,0,14.66-1.56c10.85-2.53,18.9-8.14,23.93-16.67,10.17-17.25,3.87-40.12,3.6-41.08a5,5,0,0,0-4.81-3.64Z"/><path class="cls-4" d="M152.54,223.06a2.44,2.44,0,0,1-.71-.1,43,43,0,0,1-14-7,2.5,2.5,0,0,1-.82-2.86l4.37-11.79h-2.64a2.5,2.5,0,0,1-2.26-3.56l13.65-29a2.52,2.52,0,0,1,2.27-1.43h13.78a2.5,2.5,0,0,1,2.27,3.55L162.43,184h3.28a2.5,2.5,0,0,1,2.33,3.41l-13.17,34A2.5,2.5,0,0,1,152.54,223.06Z"/><path d="M166.23,169.86l-7.72,16.67h7.2l-13.17,34A40.13,40.13,0,0,1,139.4,214L145,198.86h-6.23l13.66-29h13.78m-.52,16.67h0m.51-21.67H152.45a5,5,0,0,0-4.53,2.87l-13.65,29a5,5,0,0,0,3.59,7.05l-3.15,8.5a5,5,0,0,0,1.66,5.72,45.48,45.48,0,0,0,14.75,7.36,5,5,0,0,0,6.08-3l13.11-33.86a5,5,0,0,0-4-6.94l4.45-9.61a5,5,0,0,0-4.54-7.1Zm0,10h0Z"/><path class="cls-4" d="M169.48,225.31c-.89,0-1.78,0-2.64,0a2.5,2.5,0,0,1-2.25-3.37l7.61-20.54h-2.64a2.5,2.5,0,0,1-2.26-3.56l13.66-29a2.5,2.5,0,0,1,2.26-1.43H197a2.5,2.5,0,0,1,2.27,3.55L193.2,184h3.29a2.51,2.51,0,0,1,2.33,3.41l-13.5,34.85a2.49,2.49,0,0,1-1.76,1.53A61.7,61.7,0,0,1,169.48,225.31Z"/><path d="M197,169.86l-7.71,16.67h7.2L183,221.39a59,59,0,0,1-13.51,1.42c-.86,0-1.72,0-2.55,0l8.86-23.91h-6.23l13.66-29H197m-.51,16.67h0m.51-21.67H183.22a5,5,0,0,0-4.52,2.87l-13.66,29a5,5,0,0,0,3.6,7.05L162.24,221a5,5,0,0,0,4.51,6.73c.89,0,1.81.05,2.73.05a64,64,0,0,0,14.66-1.56,5,5,0,0,0,3.51-3.06l13.43-34.68a5,5,0,0,0-4-6.94l4.45-9.61a5,5,0,0,0-4.54-7.1Zm0,10h0Z"/><path class="cls-11" d="M289.93,221.65c-1.93,0-3.69-.06-5.37-.21a50.78,50.78,0,0,1-15.05-3.33A37.82,37.82,0,0,1,255.83,209c-14.58-15.34-12.27-38.7-12.17-39.69a2.5,2.5,0,0,1,2.49-2.23H325a2.51,2.51,0,0,1,2.41,1.82c.25.88,6,21.86-3.45,37.27-4.68,7.62-12.23,12.49-22.44,14.49h-.09A60.46,60.46,0,0,1,289.93,221.65Z"/><path d="M325,169.54s11.78,41.64-24,48.62h0a57.6,57.6,0,0,1-11.06,1c-1.79,0-3.51-.06-5.16-.2a48.16,48.16,0,0,1-14.33-3.16,35.4,35.4,0,0,1-12.8-8.55c-13.95-14.68-11.49-37.7-11.49-37.7H325m0-5H246.15a5,5,0,0,0-5,4.47c-.11,1-2.53,25.5,12.84,41.67a40.38,40.38,0,0,0,14.58,9.76,53.21,53.21,0,0,0,15.79,3.5c1.71.14,3.53.21,5.54.21a62.64,62.64,0,0,0,11.9-1.06l.13,0c10.92-2.13,19-7.39,24.09-15.63,10-16.34,4-38.33,3.72-39.26a5,5,0,0,0-4.81-3.64Z"/><path class="cls-12" d="M270.44,218.29a2.46,2.46,0,0,1-.92-.17A37.92,37.92,0,0,1,255.83,209a2.49,2.49,0,0,1-.53-2.59l2.57-6.94h-2.78a2.5,2.5,0,0,1-2.26-3.56l12.9-27.4A2.5,2.5,0,0,1,268,167h14.12a2.5,2.5,0,0,1,2.26,3.55l-5.19,11.23h3.45a2.51,2.51,0,0,1,2.33,3.41L272.77,216.7a2.51,2.51,0,0,1-2.33,1.59Z"/><path d="M282.1,169.54h0m0,0-6.83,14.78h7.36l-12.19,31.47a35.4,35.4,0,0,1-12.8-8.55l3.82-10.31h-6.37L268,169.54H282.1m0-5H268a5,5,0,0,0-4.52,2.87l-12.9,27.39a5,5,0,0,0,3.73,7.07L253,205.5a5,5,0,0,0,1.06,5.18,40.38,40.38,0,0,0,14.58,9.76,4.89,4.89,0,0,0,1.84.35,5.15,5.15,0,0,0,2-.41,5,5,0,0,0,2.66-2.78l12.19-31.47a5,5,0,0,0-4.21-6.79l3.49-7.55a5,5,0,0,0-4.46-7.25Zm0,10h0Z"/><path class="cls-12" d="M289.93,221.65c-1.93,0-3.69-.06-5.37-.21a2.49,2.49,0,0,1-2.13-3.36l6.91-18.65h-2.77a2.5,2.5,0,0,1-2.27-3.56l12.9-27.4a2.5,2.5,0,0,1,2.26-1.43h14.12a2.5,2.5,0,0,1,2.26,3.55l-5.19,11.23h3.45a2.51,2.51,0,0,1,2.33,3.41l-13.1,33.84a2.48,2.48,0,0,1-1.94,1.56A60.54,60.54,0,0,1,289.93,221.65Z"/><path d="M313.58,169.54h0m0,0-6.84,14.78h7.36L301,218.16h0a57.6,57.6,0,0,1-11.06,1c-1.79,0-3.51-.06-5.16-.2l8.17-22h-6.37l12.89-27.39h14.12m0-5H299.46a5,5,0,0,0-4.52,2.87L282,194.8a5,5,0,0,0,3.73,7.07l-5.69,15.34a5,5,0,0,0,4.27,6.72c1.75.15,3.57.22,5.58.22a63.18,63.18,0,0,0,12-1.07,5,5,0,0,0,3.77-3.11l13.1-33.84a5,5,0,0,0-4.21-6.79l3.49-7.55a4.88,4.88,0,0,0,.54-2.25,5,5,0,0,0-5-5Zm0,10Z"/></g></g></svg>